<?xml version="1.0" encoding="UTF-8"?>
<!-- Generator: Adobe Illustrator 19.1.0, SVG Export Plug-In . SVG Version: 6.00 Build 0)  -->
<svg version="1.1" id="Layer_1" xmlns="http://www.w3.org/2000/svg" xmlns:xlink="http://www.w3.org/1999/xlink" x="0px" y="0px" viewBox="0 0 150 150" enable-background="new 0 0 150 150" xml:space="preserve">
<g id="online">
	<circle id="Background_59_" fill="#C43E28" cx="75" cy="75" r="75"/>
	<g id="Shadow_59_">
		<defs>
			<circle id="SVGID_129_" cx="75" cy="75" r="75"/>
		</defs>
		<clipPath id="SVGID_2_">
			<use xlink:href="#SVGID_129_" overflow="visible"/>
		</clipPath>
		<polygon clip-path="url(#SVGID_2_)" fill="#A33322" points="115.9,36.2 34.8,93.9 54.6,113.6 43.5,116.5 77,150 150,150 150,70.3       "/>
	</g>
	<g id="Object_59_">
		<polygon fill="#CCCCCC" points="106.7,112.8 75.3,114.9 43.5,112.8 55.7,105.6 94.6,105.6   "/>
		<rect x="43.5" y="112.8" fill="#FFFFFF" width="63.2" height="3.6"/>
		<rect x="62.5" y="94" fill="#FFFFFF" width="25.2" height="14.7"/>
		<rect x="62.5" y="94.6" fill="#AAAAAA" width="25.2" height="3"/>
		<g>
			<path fill="#FFFFFF" d="M117.1,89.5c0,3.4-2.9,6.3-6.3,6.3H39.4c-3.5,0-6.3-2.9-6.3-6.3V39.9c0-3.5,2.8-6.3,6.3-6.3h71.4     c3.4,0,6.3,2.8,6.3,6.3L117.1,89.5z"/>
		</g>
		<rect x="37.3" y="38.6" fill="#62A4D1" width="75.5" height="52.1"/>
		<rect x="37.3" y="38.6" fill="#436082" width="75.5" height="3.6"/>
	</g>
</g>
</svg>